<svg width="22" height="24" viewBox="0 0 22 24" fill="none" xmlns="http://www.w3.org/2000/svg">
<path fill-rule="evenodd" clip-rule="evenodd" d="M14.6851 3.83148C15.56 2.81748 16.1497 1.40519 15.9883 0C14.7276 0.0480004 13.2023 0.805384 12.2982 1.81818C11.4864 2.71698 10.7778 4.15311 10.9683 5.53072C12.3747 5.6351 13.8102 4.84667 14.6851 3.83148ZM17.8388 12.7501C17.874 16.3825 21.1637 17.5908 21.2001 17.6064C21.1734 17.6916 20.6747 19.3281 19.4673 21.0201C18.4225 22.4817 17.3389 23.9374 15.6316 23.9686C13.9546 23.9986 13.4146 23.0158 11.4962 23.0158C9.57891 23.0158 8.97946 23.9373 7.39227 23.9985C5.74441 24.0573 4.4885 22.4171 3.43644 20.9604C1.28378 17.9808 -0.360436 12.5402 1.84804 8.86825C2.94499 7.04545 4.90471 5.8894 7.03309 5.8606C8.65062 5.8306 10.1783 6.90358 11.1673 6.90358C12.1563 6.90358 14.0128 5.61358 15.9641 5.80318C16.7807 5.83558 19.0741 6.11868 20.546 8.18386C20.4271 8.25467 17.8097 9.71414 17.8388 12.7501Z" fill="white"/>
</svg>
